PathFileType	4	(X/Y/Z)	../Python\running\Running04\task.trc
DataRate	CameraRate	NumFrames	NumMarkers	Units	OrigDataRate	OrigDataStartFrame	OrigNumFrames
200.000000	200.000000	6	30	mm	200.000000	84	226
Frame#	Time	C7			RBAK			CLAV			STRN			RASI			LASI			PE01			RTH2			RTH3			RHEE			RD5M			RTOE			LTH2			LTH3			LTB2			LTB3			LHEE			LTOE			LD5M			RTH1			LPSI			RTB2			PE03			RPSI			PE02			RTB1			RTB3			T10			LTH1			LTB1			
		X1	Y1	Z1	X2	Y2	Z2	X3	Y3	Z3	X4	Y4	Z4	X5	Y5	Z5	X6	Y6	Z6	X7	Y7	Z7	X8	Y8	Z8	X9	Y9	Z9	X10	Y10	Z10	X11	Y11	Z11	X12	Y12	Z12	X13	Y13	Z13	X14	Y14	Z14	X15	Y15	Z15	X16	Y16	Z16	X17	Y17	Z17	X18	Y18	Z18	X19	Y19	Z19	X20	Y20	Z20	X21	Y21	Z21	X22	Y22	Z22	X23	Y23	Z23	X24	Y24	Z24	X25	Y25	Z25	X26	Y26	Z26	X27	Y27	Z27	X28	Y28	Z28	X29	Y29	Z29	X30	Y30	Z30	

85	0.42	-97.64423370361334	1369.627807617188	152.9306182861329	-172.9767150878907	1281.103637695313	219.6423339843751	14.10096073150635	1281.02734375	191.0978393554688	57.13773345947268	1098.1630859375	185.6909179687501	1.413804650306702	896.197387695313	257.460906982422	-5.125310420989992	863.1569213867192	40.92482757568361	-167.1387786865235	996.466674804688	160.4247131347657	65.86952209472659	553.809020996094	291.1236267089845	68.89713287353518	613.6321411132815	306.7869873046876	160.6521606445313	91.38130950927737	194.7654113769532	306.4119567871095	64.56804656982425	263.0389709472657	336.4063720703126	91.56140899658206	222.1832122802736	-233.2527160644532	600.6112060546877	49.8229675292969	-154.6749114990235	598.1151123046877	32.02656936645509	-474.9729614257815	362.0946044921876	92.67411804199222	-427.0275878906252	350.4466552734376	88.513298034668	-610.8204345703127	289.2206420898439	161.054183959961	-565.7454223632815	119.1470489501954	159.0529327392579	-589.5017089843752	140.4120330810547	109.2815322875977	18.27163314819337	615.2042236328127	308.3415527343751	-183.357406616211	964.2451782226567	121.7134017944337	131.0492401123047	303.3605346679689	287.4450683593751	-201.1993560791017	941.4031372070317	143.2904205322266	-184.8101806640626	966.5812377929692	209.7667999267579	-198.8166809082032	948.8441772460942	193.3417816162111	158.8524932861329	357.527069091797	286.8975219726564	175.3569488525391	280.8887023925782	279.6717224121095	-153.7557678222657	1085.6728515625	132.6449432373047	-187.368637084961	637.7541503906252	29.01035118103029	-413.8632507324221	409.6224670410159	75.99613952636722	
86	0.425	-81.5829772949219	1368.154418945313	153.332748413086	-157.1941223144532	1278.940307617188	219.8861236572267	30.05394172668458	1279.696044921875	191.3837585449219	73.02010345458987	1097.147338867188	185.6236572265626	17.1916790008545	895.224731445313	257.9483337402345	11.66279029846192	862.5401000976567	41.21086883544923	-151.5621337890626	995.0957641601567	160.2729644775391	82.73081207275393	552.648132324219	290.8893432617189	85.33483886718753	612.2735595703127	307.498992919922	173.8891601562501	90.917106628418	191.9768981933594	318.4916992187501	61.48747253417972	260.836151123047	348.9331970214845	88.43547821044925	220.9138336181642	-214.2074127197267	597.3283691406252	49.24380111694339	-135.2955780029297	595.1947021484377	32.78734588623048	-458.445739746094	365.7037963867189	93.32420349121097	-410.8752136230471	352.449188232422	88.97919464111331	-597.0958251953127	296.337615966797	161.9390869140626	-553.9173583984377	125.6763381958008	159.5370330810547	-577.2974853515627	147.3890380859376	109.6202774047852	34.71737670898439	613.5430908203127	308.7870178222657	-167.2140197753907	962.9021606445317	121.2396850585938	145.1245880126954	302.0581665039064	285.9684448242189	-185.0555114746094	939.9450683593755	142.5227050781251	-169.3274078369141	964.9501953125005	209.3420715332032	-183.0766143798829	947.0910644531255	192.6326141357423	173.4812927246094	356.0895080566407	286.3301086425782	189.4081420898438	279.3330688476564	278.5283508300782	-138.0363922119141	1084.517456054688	132.4252929687501	-168.0850982666016	634.6480712890627	28.89994049072267	-395.7883605957034	411.1923522949221	76.37086486816409	
87	0.43	-65.54732513427737	1366.459228515625	153.7510070800782	-141.4143524169922	1276.52294921875	220.2171783447267	46.00950622558595	1278.107421875	191.6219177246094	88.87251281738284	1095.750366210938	185.4945831298829	32.93695449829103	894.0150756835942	258.5691223144532	28.47815704345705	861.7744140625005	41.54357910156251	-136.0235595703126	993.2581176757817	160.1523742675782	99.91461944580084	551.5886840820315	290.6560058593751	102.0125427246094	611.0876464843752	307.9383239746095	185.6627960205079	89.96785736083987	189.2680358886719	329.136688232422	57.6225395202637	258.5686950683595	360.0506591796876	84.31401824951175	219.3914489746095	-194.9864959716798	593.796325683594	48.61946105957034	-115.7939147949219	592.113220214844	33.34107971191408	-441.359313964844	369.1199645996095	93.89353179931643	-394.2112426757815	354.2849426269532	89.32229614257815	-582.6339111328127	303.2870178222657	162.8214263916016	-541.337097167969	132.0904541015626	159.6959991455079	-564.3781738281252	154.3348236083985	109.7101821899415	51.39524078369143	611.9316406250002	309.2051696777345	-151.1654052734376	961.1181640625005	120.7965240478516	158.6599578857422	300.4443359375001	284.5394897460939	-168.9938354492188	938.0456542968755	141.7581939697266	-153.8937072753907	962.842407226563	208.8849182128907	-167.4033355712891	944.8625488281255	191.9282226562501	187.7606964111329	354.2085571289064	285.6995849609376	202.7945404052736	277.2957458496095	277.3082580566407	-122.3539733886719	1083.1220703125	132.1951141357422	-148.6911315917969	631.307067871094	28.71802330017091	-377.225311279297	412.5523071289065	76.6910095214844	
88	0.435	-49.54120635986331	1364.545288085938	154.1918640136719	-125.639259338379	1273.852294921875	220.6337890625001	61.96723556518558	1276.26171875	191.8189086914063	104.7006530761719	1093.973510742188	185.3072357177735	48.6545104980469	892.5682983398442	259.3131103515626	45.31583786010744	860.8347778320317	41.92245101928712	-120.5064086914063	990.9544067382817	160.0436553955079	117.3186111450196	550.6062622070315	290.4865722656251	118.8772888183594	610.0614013671877	308.1253356933595	196.0154876708986	88.50777435302737	186.6798553466797	338.469940185547	53.111442565918	256.2334289550782	369.8614196777345	79.34419250488284	217.536102294922	-175.5725708007813	590.0177001953127	47.93736267089845	-96.15791320800787	588.9057617187502	33.64093399047853	-423.6971435546877	372.3014221191407	94.37966156005862	-377.0169677734376	355.9261169433595	89.55460357666018	-567.4097900390627	310.0149536132814	163.7830352783204	-527.9715576171877	138.3563079833985	159.4397277832032	-550.7293701171877	161.2601318359376	109.5065307617188	68.24520111083987	610.3856201171877	309.6039428710939	-135.2033081054688	958.891723632813	120.3752670288087	171.6632080078126	298.5020141601564	283.1736145019532	-153.0041809082032	935.7025756835942	140.9965209960938	-138.4903869628907	960.264526367188	208.3873291015626	-151.7819366455079	942.169555664063	191.2259216308594	201.6763763427736	351.8641052246095	285.0178527832032	215.5218048095704	274.7720031738282	276.0206298828126	-106.6971817016602	1081.481079101563	131.9455871582032	-129.2065582275391	627.7629394531252	28.44965744018556	-358.1680908203126	413.6750793457034	76.94438171386722	
89	0.44	-33.56783294677736	1362.416381835938	154.6614990234376	-109.8703994750977	1270.929565429688	221.1342315673829	77.92737579345706	1274.158203125	191.9808807373047	120.5103988647462	1091.8203125	185.0650024414063	64.34722900390628	890.8859863281255	260.1687622070314	62.16789627075198	859.6958618164067	42.34683227539064	-105.0001602172852	988.1950683593755	159.9264526367188	134.8156738281251	549.6534423828127	290.439910888672	135.8545074462891	609.1505126953127	308.1062927246095	204.9936370849611	86.52115631103518	184.250961303711	346.6110229492189	48.13134384155276	253.8574371337892	378.4740295410157	73.71543884277347	215.308807373047	-155.9486389160157	585.9849243164065	47.18642807006837	-76.37097930908206	585.5901489257815	33.66818618774415	-405.448425292969	375.205535888672	94.78239440917972	-359.2788696289064	357.341522216797	89.68732452392581	-551.406921386719	316.4649047851564	164.8887023925782	-513.8023681640627	144.4393463134766	158.7057342529297	-536.340515136719	168.1615447998047	108.983024597168	85.1884460449219	608.9019775390627	309.9907836914064	-119.3200073242188	956.2265014648442	119.9664764404297	184.1412811279297	296.2222595214845	281.8838195800782	-137.0769500732422	932.9196166992192	140.2374725341797	-123.1009368896485	957.2324218750005	207.8442535400392	-136.1999053955079	939.030639648438	190.5233306884766	215.2095794677736	349.0444641113282	284.2950439453126	227.5941467285157	271.7678527832032	274.6751708984376	-91.05525970458987	1079.588989257813	131.6709747314454	-109.6411590576172	624.0336914062502	28.08517074584962	-338.6151733398439	414.5318603515627	77.11994171142581	
90	0.445	-17.62955856323243	1360.077392578125	155.1655578613282	-94.10901641845706	1267.757934570313	221.7168426513673	93.89076232910159	1271.795776367188	192.1133422851564	136.3075103759766	1089.296142578125	184.7708435058594	80.01572418212893	888.972045898438	261.1231994628907	79.02359771728518	858.3338012695317	42.81571578979494	-89.50071716308597	985.0003051757817	159.7801818847657	152.2625427246094	548.6617431640627	290.5625610351564	152.8514556884766	608.2799072265627	307.9478454589845	212.6473388671876	84.00428009033206	182.0150909423829	353.6701965332032	42.88911819458009	251.4962158203126	385.9981079101565	67.6515808105469	212.7165374755861	-136.1027374267579	581.6848144531252	46.36083984375001	-56.41860580444339	582.1689453125002	33.43058395385744	-386.6080017089846	377.7906494140626	95.10296630859378	-340.988250732422	358.4987792968751	89.72877502441409	-534.617858886719	322.579071044922	166.1772155761719	-498.819519042969	150.3039245605469	157.4640808105469	-521.1994628906252	175.0177154541016	108.1328582763672	102.1317291259766	607.456726074219	310.372528076172	-103.508659362793	953.132446289063	119.5602188110352	196.1022949218751	293.6055908203126	280.6803283691407	-121.2038116455079	929.7074584960942	139.4810028076172	-107.7119522094727	953.7716674804692	207.2535705566407	-120.647804260254	935.4719848632817	189.8184051513672	228.3408050537111	345.7488098144532	283.5364379882814	239.0166473388673	268.3010864257814	273.2802734375001	-75.41867828369143	1077.442504882813	131.3686828613282	-89.99803161621097	620.1253051757815	27.62144088745119	-318.569061279297	415.094421386719	77.20849609375003	
